<?xml version="1.0" encoding="UTF-8" standalone="no"?>
<!-- Generator: Adobe Illustrator 18.0.0, SVG Export Plug-In . SVG Version: 6.00 Build 0)  -->

<svg
   version="1.1"
   id="Capa_1"
   x="0px"
   y="0px"
   viewBox="0 0 277.446 277.446"
   style="enable-background:new 0 0 277.446 277.446;"
   xml:space="preserve"
   sodipodi:docname="pelicula-clapper-open.svg"
   inkscape:version="1.1 (c68e22c387, 2021-05-23)"
   xmlns:inkscape="http://www.inkscape.org/namespaces/inkscape"
   xmlns:sodipodi="http://sodipodi.sourceforge.net/DTD/sodipodi-0.dtd"
   xmlns="http://www.w3.org/2000/svg"
   xmlns:svg="http://www.w3.org/2000/svg"><defs
   id="defs79" /><sodipodi:namedview
   id="namedview77"
   pagecolor="#505050"
   bordercolor="#eeeeee"
   borderopacity="1"
   inkscape:pageshadow="0"
   inkscape:pageopacity="0"
   inkscape:pagecheckerboard="0"
   showgrid="false"
   inkscape:zoom="1.9355118"
   inkscape:cx="138.46467"
   inkscape:cy="138.723"
   inkscape:window-width="1366"
   inkscape:window-height="745"
   inkscape:window-x="-8"
   inkscape:window-y="-8"
   inkscape:window-maximized="1"
   inkscape:current-layer="Capa_1" />
<path
   id="_x30_6-Movie_Clapper"
   d="M59.488,117.299c-0.504-4.237-2.007-8.171-4.273-11.556l202.992-67.776L247.552,6.051  c-1.549-4.638-6.566-7.141-11.201-5.594L15.54,74.182c-4.635,1.547-7.143,6.563-5.594,11.201l5.225,15.647  c-5.216,4.843-8.488,11.752-8.488,19.415c0,9.924,5.486,18.586,13.582,23.127v125.02c0,4.891,3.967,8.853,8.854,8.853h232.793  c4.885,0,8.852-3.963,8.852-8.853V117.299H59.488z M188.869,26.724l26.875-8.973l-6.467,26.14l-26.875,8.973L188.869,26.724z   M122.47,48.893l26.877-8.973l-6.467,26.139l-26.875,8.974L122.47,48.893z M33.181,133.946c-7.442,0-13.498-6.056-13.498-13.5  c0-7.444,6.056-13.5,13.498-13.5c7.444,0,13.5,6.056,13.5,13.5C46.681,127.89,40.625,133.946,33.181,133.946z M56.074,71.062  l26.877-8.973l-6.467,26.14l-26.877,8.974L56.074,71.062z M82.476,147.192H54.142l14.412-22.746h28.334L82.476,147.192z   M138.554,124.446h28.334l-14.412,22.746h-28.334L138.554,124.446z M131.599,234.372v-60l47.783,30L131.599,234.372z   M222.476,147.192h-28.334l14.412-22.746h28.334L222.476,147.192z"
   style="fill:#696969;fill-opacity:1" />
<g
   id="g46">
</g>
<g
   id="g48">
</g>
<g
   id="g50">
</g>
<g
   id="g52">
</g>
<g
   id="g54">
</g>
<g
   id="g56">
</g>
<g
   id="g58">
</g>
<g
   id="g60">
</g>
<g
   id="g62">
</g>
<g
   id="g64">
</g>
<g
   id="g66">
</g>
<g
   id="g68">
</g>
<g
   id="g70">
</g>
<g
   id="g72">
</g>
<g
   id="g74">
</g>
</svg>
